<svg width="48" height="48" viewBox="0 0 48 48" fill="none" xmlns="http://www.w3.org/2000/svg">
<g clip-path="url(#clip0_1405_8497)">
<path d="M12.0002 9.15527e-05C10.3502 9.15527e-05 9.00024 1.35009 9.00024 3.00009V45.0001C9.00024 46.6501 10.3502 48.0001 12.0002 48.0001H42.0002C43.6502 48.0001 45.0002 46.6501 45.0002 45.0001V12.0001L33.0002 9.15527e-05H12.0002Z" fill="#E2E5E7"/>
<path d="M36 12.0001H45L33 9.15527e-05V9.00009C33 10.6501 34.35 12.0001 36 12.0001Z" fill="#B0B7BD"/>
<path d="M45.0002 20.9998L36.0002 11.9998H45.0002V20.9998Z" fill="#CAD1D8"/>
<path d="M39.0002 38.9999C39.0002 39.8249 38.3252 40.4999 37.5002 40.4999H4.50024C3.67524 40.4999 3.00024 39.8249 3.00024 38.9999V23.9999C3.00024 23.1749 3.67524 22.4999 4.50024 22.4999H37.5002C38.3252 22.4999 39.0002 23.1749 39.0002 23.9999V38.9999Z" fill="#F15642"/>
<path d="M9.53882 28.4203C9.53882 28.0243 9.85082 27.5923 10.3533 27.5923H13.1238C14.6838 27.5923 16.0878 28.6363 16.0878 30.6373C16.0878 32.5333 14.6838 33.5893 13.1238 33.5893H11.1213V35.1733C11.1213 35.7013 10.7853 35.9998 10.3533 35.9998C9.95732 35.9998 9.53882 35.7013 9.53882 35.1733V28.4203ZM11.1213 29.1028V32.0908H13.1238C13.9278 32.0908 14.5638 31.3813 14.5638 30.6373C14.5638 29.7988 13.9278 29.1028 13.1238 29.1028H11.1213Z" fill="white"/>
<path d="M18.4369 36C18.0409 36 17.6089 35.784 17.6089 35.2575V28.4445C17.6089 28.014 18.0409 27.7005 18.4369 27.7005H21.1834C26.6644 27.7005 26.5444 36 21.2914 36H18.4369ZM19.1929 29.1645V34.5375H21.1834C24.4219 34.5375 24.5659 29.1645 21.1834 29.1645H19.1929Z" fill="white"/>
<path d="M28.4882 29.2604V31.1669H31.5467C31.9787 31.1669 32.4107 31.5989 32.4107 32.0174C32.4107 32.4134 31.9787 32.7374 31.5467 32.7374H28.4882V35.2559C28.4882 35.6759 28.1897 35.9984 27.7697 35.9984C27.2417 35.9984 26.9192 35.6759 26.9192 35.2559V28.4429C26.9192 28.0124 27.2432 27.6989 27.7697 27.6989H31.9802C32.5082 27.6989 32.8202 28.0124 32.8202 28.4429C32.8202 28.8269 32.5082 29.2589 31.9802 29.2589H28.4882V29.2604Z" fill="white"/>
<path d="M37.5002 40.4999H9.00024V41.9999H37.5002C38.3252 41.9999 39.0002 41.3249 39.0002 40.4999V38.9999C39.0002 39.8249 38.3252 40.4999 37.5002 40.4999Z" fill="#CAD1D8"/>
</g>
<defs>
<clipPath id="clip0_1405_8497">
<rect width="48" height="48" fill="white"/>
</clipPath>
</defs>
</svg>
